<?xml version="1.0" encoding="UTF-8" standalone="no"?>
<!DOCTYPE svg PUBLIC "-//W3C//DTD SVG 1.1//EN"
 "http://www.w3.org/Graphics/SVG/1.1/DTD/svg11.dtd">
<!-- Generated by graphviz version 2.43.0 (0)
 -->
<!-- Title: RelaySet Pages: 1 -->
<svg width="402pt" height="491pt"
 viewBox="0.00 0.00 402.08 491.00" xmlns="http://www.w3.org/2000/svg" xmlns:xlink="http://www.w3.org/1999/xlink">
<g id="graph0" class="graph" transform="scale(1 1) rotate(0) translate(4 487)">
<title>RelaySet</title>
<polygon fill="white" stroke="transparent" points="-4,4 -4,-487 398.08,-487 398.08,4 -4,4"/>
<!-- HW -->
<g id="node1" class="node">
<title>HW</title>
<polygon fill="lightgray" stroke="black" points="339.58,-36 207.58,-36 207.58,0 339.58,0 339.58,-36"/>
<text text-anchor="middle" x="273.58" y="-21" font-family="Helvetica,sans-Serif" font-size="10.00">TCA9554 output pin</text>
<text text-anchor="middle" x="273.58" y="-10" font-family="Helvetica,sans-Serif" font-size="10.00">&#45;&gt; optocoupler &#45;&gt; relay</text>
</g>
<!-- err -->
<g id="node2" class="node">
<title>err</title>
<polygon fill="none" stroke="black" points="134.58,-328 4.58,-328 4.58,-292 134.58,-292 134.58,-328"/>
<text text-anchor="middle" x="69.58" y="-307.5" font-family="Helvetica,sans-Serif" font-size="10.00">ESP_ERR_INVALID_ARG</text>
</g>
<!-- input -->
<g id="node3" class="node">
<title>input</title>
<polygon fill="none" stroke="black" points="125.08,-483 48.08,-483 48.08,-447 125.08,-447 125.08,-483"/>
<text text-anchor="middle" x="86.58" y="-468" font-family="Helvetica,sans-Serif" font-size="10.00">relay_id_t id</text>
<text text-anchor="middle" x="86.58" y="-457" font-family="Helvetica,sans-Serif" font-size="10.00">bool on</text>
</g>
<!-- valid -->
<g id="node4" class="node">
<title>valid</title>
<polygon fill="none" stroke="black" points="86.58,-410 -0.08,-392 86.58,-374 173.24,-392 86.58,-410"/>
<text text-anchor="middle" x="86.58" y="-389.5" font-family="Helvetica,sans-Serif" font-size="10.00">id &lt; RELAY_MAX?</text>
</g>
<!-- input&#45;&gt;valid -->
<g id="edge1" class="edge">
<title>input&#45;&gt;valid</title>
<path fill="none" stroke="black" d="M86.58,-446.81C86.58,-438.79 86.58,-429.05 86.58,-420.07"/>
<polygon fill="black" stroke="black" points="90.08,-420.03 86.58,-410.03 83.08,-420.03 90.08,-420.03"/>
</g>
<!-- valid&#45;&gt;err -->
<g id="edge2" class="edge">
<title>valid&#45;&gt;err</title>
<path fill="none" stroke="black" d="M83.06,-374.42C80.83,-363.95 77.9,-350.16 75.34,-338.11"/>
<polygon fill="black" stroke="black" points="78.72,-337.16 73.21,-328.11 71.87,-338.62 78.72,-337.16"/>
<text text-anchor="middle" x="85.58" y="-348.8" font-family="Helvetica,sans-Serif" font-size="9.00">no</text>
</g>
<!-- level -->
<g id="node5" class="node">
<title>level</title>
<polygon fill="none" stroke="black" points="394.08,-328 153.08,-328 153.08,-292 394.08,-292 394.08,-328"/>
<text text-anchor="middle" x="273.58" y="-313" font-family="Helvetica,sans-Serif" font-size="10.00">pin_val = on ?</text>
<text text-anchor="middle" x="273.58" y="-302" font-family="Helvetica,sans-Serif" font-size="10.00">RELAY_ACTIVE_LEVEL : !RELAY_ACTIVE_LEVEL</text>
</g>
<!-- valid&#45;&gt;level -->
<g id="edge3" class="edge">
<title>valid&#45;&gt;level</title>
<path fill="none" stroke="black" d="M113.37,-379.54C142.3,-367.16 188.99,-347.19 224.53,-331.99"/>
<polygon fill="black" stroke="black" points="225.95,-335.18 233.76,-328.03 223.19,-328.75 225.95,-335.18"/>
<text text-anchor="middle" x="198.58" y="-348.8" font-family="Helvetica,sans-Serif" font-size="9.00">yes</text>
</g>
<!-- exio -->
<g id="node6" class="node">
<title>exio</title>
<polygon fill="none" stroke="black" points="341.58,-255 205.58,-255 205.58,-219 341.58,-219 341.58,-255"/>
<text text-anchor="middle" x="273.58" y="-234.5" font-family="Helvetica,sans-Serif" font-size="10.00">exio_set_pin(id, pin_val)</text>
</g>
<!-- level&#45;&gt;exio -->
<g id="edge4" class="edge">
<title>level&#45;&gt;exio</title>
<path fill="none" stroke="black" d="M273.58,-291.81C273.58,-283.79 273.58,-274.05 273.58,-265.07"/>
<polygon fill="black" stroke="black" points="277.08,-265.03 273.58,-255.03 270.08,-265.03 277.08,-265.03"/>
</g>
<!-- rmw -->
<g id="node7" class="node">
<title>rmw</title>
<polygon fill="none" stroke="black" points="329.58,-182 217.58,-182 217.58,-146 329.58,-146 329.58,-182"/>
<text text-anchor="middle" x="273.58" y="-167" font-family="Helvetica,sans-Serif" font-size="10.00">비트 세트/클리어</text>
<text text-anchor="middle" x="273.58" y="-156" font-family="Helvetica,sans-Serif" font-size="10.00">s_output_cache</text>
</g>
<!-- exio&#45;&gt;rmw -->
<g id="edge5" class="edge">
<title>exio&#45;&gt;rmw</title>
<path fill="none" stroke="black" d="M273.58,-218.81C273.58,-210.79 273.58,-201.05 273.58,-192.07"/>
<polygon fill="black" stroke="black" points="277.08,-192.03 273.58,-182.03 270.08,-192.03 277.08,-192.03"/>
</g>
<!-- i2c -->
<g id="node8" class="node">
<title>i2c</title>
<polygon fill="none" stroke="black" points="366.08,-109 181.08,-109 181.08,-73 366.08,-73 366.08,-109"/>
<text text-anchor="middle" x="273.58" y="-94" font-family="Helvetica,sans-Serif" font-size="10.00">i2c_master_transmit()</text>
<text text-anchor="middle" x="273.58" y="-83" font-family="Helvetica,sans-Serif" font-size="10.00">[REG_OUTPUT, cache] &#45;&gt; TCA9554</text>
</g>
<!-- rmw&#45;&gt;i2c -->
<g id="edge6" class="edge">
<title>rmw&#45;&gt;i2c</title>
<path fill="none" stroke="black" d="M273.58,-145.81C273.58,-137.79 273.58,-128.05 273.58,-119.07"/>
<polygon fill="black" stroke="black" points="277.08,-119.03 273.58,-109.03 270.08,-119.03 277.08,-119.03"/>
</g>
<!-- i2c&#45;&gt;HW -->
<g id="edge7" class="edge">
<title>i2c&#45;&gt;HW</title>
<path fill="none" stroke="black" d="M273.58,-72.81C273.58,-64.79 273.58,-55.05 273.58,-46.07"/>
<polygon fill="black" stroke="black" points="277.08,-46.03 273.58,-36.03 270.08,-46.03 277.08,-46.03"/>
</g>
</g>
</svg>
