<?xml version="1.0" encoding="UTF-8" standalone="no"?>
<!DOCTYPE svg PUBLIC "-//W3C//DTD SVG 1.1//EN"
 "http://www.w3.org/Graphics/SVG/1.1/DTD/svg11.dtd">
<!-- Generated by graphviz version 2.43.0 (0)
 -->
<!-- Title: ClientTask Pages: 1 -->
<svg width="363pt" height="451pt"
 viewBox="0.00 0.00 362.50 451.00" xmlns="http://www.w3.org/2000/svg" xmlns:xlink="http://www.w3.org/1999/xlink">
<g id="graph0" class="graph" transform="scale(1 1) rotate(0) translate(4 447)">
<title>ClientTask</title>
<polygon fill="white" stroke="transparent" points="-4,4 -4,-447 358.5,-447 358.5,4 -4,4"/>
<!-- start -->
<g id="node1" class="node">
<title>start</title>
<polygon fill="none" stroke="black" points="321.5,-443 209.5,-443 209.5,-407 321.5,-407 321.5,-443"/>
<text text-anchor="middle" x="265.5" y="-428" font-family="Helvetica,sans-Serif" font-size="10.00">클라이언트 연결</text>
<text text-anchor="middle" x="265.5" y="-417" font-family="Helvetica,sans-Serif" font-size="10.00">환영 메시지 전송</text>
</g>
<!-- recv -->
<g id="node2" class="node">
<title>recv</title>
<polygon fill="none" stroke="black" points="312.5,-370 218.5,-370 218.5,-334 312.5,-334 312.5,-370"/>
<text text-anchor="middle" x="265.5" y="-349.5" font-family="Helvetica,sans-Serif" font-size="10.00">recv() &#45;&gt; rx_buf</text>
</g>
<!-- start&#45;&gt;recv -->
<g id="edge1" class="edge">
<title>start&#45;&gt;recv</title>
<path fill="none" stroke="black" d="M265.5,-406.81C265.5,-398.79 265.5,-389.05 265.5,-380.07"/>
<polygon fill="black" stroke="black" points="269,-380.03 265.5,-370.03 262,-380.03 269,-380.03"/>
</g>
<!-- chk -->
<g id="node3" class="node">
<title>chk</title>
<polygon fill="none" stroke="black" points="220.5,-297 157.46,-279 220.5,-261 283.54,-279 220.5,-297"/>
<text text-anchor="middle" x="220.5" y="-276.5" font-family="Helvetica,sans-Serif" font-size="10.00">수신 &lt;= 0?</text>
</g>
<!-- recv&#45;&gt;chk -->
<g id="edge2" class="edge">
<title>recv&#45;&gt;chk</title>
<path fill="none" stroke="black" d="M254.61,-333.81C248.79,-324.64 241.55,-313.22 235.24,-303.26"/>
<polygon fill="black" stroke="black" points="238.08,-301.2 229.77,-294.63 232.17,-304.95 238.08,-301.2"/>
</g>
<!-- find -->
<g id="node4" class="node">
<title>find</title>
<polygon fill="none" stroke="black" points="101.5,-215 14.84,-197 101.5,-179 188.16,-197 101.5,-215"/>
<text text-anchor="middle" x="101.5" y="-194.5" font-family="Helvetica,sans-Serif" font-size="10.00">strchr(rx_buf, &#39;\n&#39;)</text>
</g>
<!-- chk&#45;&gt;find -->
<g id="edge4" class="edge">
<title>chk&#45;&gt;find</title>
<path fill="none" stroke="black" d="M202.68,-266.02C183.34,-253.02 152.17,-232.07 129.54,-216.85"/>
<polygon fill="black" stroke="black" points="131.27,-213.8 121.02,-211.12 127.37,-219.61 131.27,-213.8"/>
<text text-anchor="middle" x="174.5" y="-235.8" font-family="Helvetica,sans-Serif" font-size="9.00">no</text>
</g>
<!-- done -->
<g id="node8" class="node">
<title>done</title>
<polygon fill="none" stroke="black" points="283,-215 206,-215 206,-179 283,-179 283,-215"/>
<text text-anchor="middle" x="244.5" y="-200" font-family="Helvetica,sans-Serif" font-size="10.00">close(sock)</text>
<text text-anchor="middle" x="244.5" y="-189" font-family="Helvetica,sans-Serif" font-size="10.00">vTaskDelete</text>
</g>
<!-- chk&#45;&gt;done -->
<g id="edge3" class="edge">
<title>chk&#45;&gt;done</title>
<path fill="none" stroke="black" d="M225.24,-262.19C228.42,-251.59 232.69,-237.36 236.4,-224.99"/>
<polygon fill="black" stroke="black" points="239.83,-225.74 239.35,-215.16 233.13,-223.73 239.83,-225.74"/>
<text text-anchor="middle" x="241.5" y="-235.8" font-family="Helvetica,sans-Serif" font-size="9.00">yes</text>
</g>
<!-- handle -->
<g id="node5" class="node">
<title>handle</title>
<polygon fill="none" stroke="black" points="129,-133 0,-133 0,-97 129,-97 129,-133"/>
<text text-anchor="middle" x="64.5" y="-118" font-family="Helvetica,sans-Serif" font-size="10.00">handle_command(line)</text>
<text text-anchor="middle" x="64.5" y="-107" font-family="Helvetica,sans-Serif" font-size="10.00">send(resp)</text>
</g>
<!-- find&#45;&gt;handle -->
<g id="edge5" class="edge">
<title>find&#45;&gt;handle</title>
<path fill="none" stroke="black" d="M75.46,-184.29C66.15,-178.68 56.69,-170.96 51.5,-161 48.61,-155.46 48.63,-149.18 50.07,-143.12"/>
<polygon fill="black" stroke="black" points="53.52,-143.87 53.58,-133.28 46.92,-141.53 53.52,-143.87"/>
<text text-anchor="middle" x="71.5" y="-153.8" font-family="Helvetica,sans-Serif" font-size="9.00">&#39;\n&#39; 발견</text>
</g>
<!-- shift -->
<g id="node6" class="node">
<title>shift</title>
<polygon fill="none" stroke="black" points="279,-133 154,-133 154,-97 279,-97 279,-133"/>
<text text-anchor="middle" x="216.5" y="-118" font-family="Helvetica,sans-Serif" font-size="10.00">memmove: 잔여</text>
<text text-anchor="middle" x="216.5" y="-107" font-family="Helvetica,sans-Serif" font-size="10.00">바이트를 buf[0]으로</text>
</g>
<!-- find&#45;&gt;shift -->
<g id="edge7" class="edge">
<title>find&#45;&gt;shift</title>
<path fill="none" stroke="black" d="M120.49,-182.79C137.57,-170.91 163.04,-153.19 183.46,-138.98"/>
<polygon fill="black" stroke="black" points="185.65,-141.72 191.86,-133.14 181.65,-135.98 185.65,-141.72"/>
<text text-anchor="middle" x="205" y="-153.8" font-family="Helvetica,sans-Serif" font-size="9.00">더 이상 줄 없음</text>
</g>
<!-- handle&#45;&gt;find -->
<g id="edge6" class="edge">
<title>handle&#45;&gt;find</title>
<path fill="none" stroke="black" d="M80.14,-133.17C84.36,-138.56 88.57,-144.74 91.5,-151 94.15,-156.66 96.12,-163.06 97.57,-169.22"/>
<polygon fill="black" stroke="black" points="94.17,-170.06 99.55,-179.19 101.03,-168.7 94.17,-170.06"/>
</g>
<!-- ovf -->
<g id="node7" class="node">
<title>ovf</title>
<polygon fill="none" stroke="black" points="265.5,-60 176.5,-30 265.5,0 354.5,-30 265.5,-60"/>
<text text-anchor="middle" x="265.5" y="-33" font-family="Helvetica,sans-Serif" font-size="10.00">버퍼 가득참?</text>
<text text-anchor="middle" x="265.5" y="-22" font-family="Helvetica,sans-Serif" font-size="10.00">rx_len 초기화</text>
</g>
<!-- shift&#45;&gt;ovf -->
<g id="edge8" class="edge">
<title>shift&#45;&gt;ovf</title>
<path fill="none" stroke="black" d="M226.65,-96.8C232.23,-87.36 239.33,-75.33 245.94,-64.14"/>
<polygon fill="black" stroke="black" points="249.02,-65.81 251.09,-55.42 242.99,-62.25 249.02,-65.81"/>
</g>
<!-- ovf&#45;&gt;recv -->
<g id="edge9" class="edge">
<title>ovf&#45;&gt;recv</title>
<path fill="none" stroke="black" d="M285.81,-53.16C298.13,-68.92 311.5,-91.26 311.5,-114 311.5,-280 311.5,-280 311.5,-280 311.5,-297.23 301.84,-313.58 291.38,-326.23"/>
<polygon fill="black" stroke="black" points="288.51,-324.19 284.48,-333.99 293.74,-328.84 288.51,-324.19"/>
</g>
</g>
</svg>
