<?xml version="1.0" encoding="UTF-8" standalone="no"?>
<!DOCTYPE svg PUBLIC "-//W3C//DTD SVG 1.1//EN"
 "http://www.w3.org/Graphics/SVG/1.1/DTD/svg11.dtd">
<!-- Generated by graphviz version 2.43.0 (0)
 -->
<!-- Title: main/eth_init.h Pages: 1 -->
<svg width="192pt" height="82pt"
 viewBox="0.00 0.00 192.00 82.00" xmlns="http://www.w3.org/2000/svg" xmlns:xlink="http://www.w3.org/1999/xlink">
<g id="graph0" class="graph" transform="scale(1 1) rotate(0) translate(4 78)">
<title>main/eth_init.h</title>
<!-- Node1 -->
<g id="Node000001" class="node">
<title>Node1</title>
<g id="a_Node000001"><a xlink:title="W5500 SPI 이더넷 초기화 — SPI 버스 설정, W5500 드라이버 설치, esp_netif 구성, IP 주소 획득 시 TCP 서버 자동 시작.">
<polygon fill="#999999" stroke="#666666" points="139.5,-74 49.5,-74 49.5,-55 139.5,-55 139.5,-74"/>
<text text-anchor="middle" x="94.5" y="-62" font-family="Helvetica,sans-Serif" font-size="10.00">main/eth_init.h</text>
</a>
</g>
</g>
<!-- Node2 -->
<g id="Node000002" class="node">
<title>Node2</title>
<g id="a_Node000002"><a xlink:href="eth__init_8c.html" target="_top" xlink:title=" ">
<polygon fill="white" stroke="#666666" points="89,-19 0,-19 0,0 89,0 89,-19"/>
<text text-anchor="middle" x="44.5" y="-7" font-family="Helvetica,sans-Serif" font-size="10.00">main/eth_init.c</text>
</a>
</g>
</g>
<!-- Node1&#45;&gt;Node2 -->
<g id="edge1_Node000001_Node000002" class="edge">
<title>Node1&#45;&gt;Node2</title>
<g id="a_edge1_Node000001_Node000002"><a xlink:title=" ">
<path fill="none" stroke="#63b8ff" d="M79.16,-47.24C70.4,-37.95 59.76,-26.68 52.6,-19.09"/>
<polygon fill="#63b8ff" stroke="#63b8ff" points="76.84,-49.88 86.24,-54.75 81.93,-45.07 76.84,-49.88"/>
</a>
</g>
</g>
<!-- Node3 -->
<g id="Node000003" class="node">
<title>Node3</title>
<g id="a_Node000003"><a xlink:href="main_8c.html" target="_top" xlink:title="애플리케이션 진입점 — 모든 서브시스템을 순서대로 초기화하고 FreeRTOS 스케줄러에 제어를 넘긴다.">
<polygon fill="white" stroke="#666666" points="184,-19 107,-19 107,0 184,0 184,-19"/>
<text text-anchor="middle" x="145.5" y="-7" font-family="Helvetica,sans-Serif" font-size="10.00">main/main.c</text>
</a>
</g>
</g>
<!-- Node1&#45;&gt;Node3 -->
<g id="edge2_Node000001_Node000003" class="edge">
<title>Node1&#45;&gt;Node3</title>
<g id="a_edge2_Node000001_Node000003"><a xlink:title=" ">
<path fill="none" stroke="#63b8ff" d="M109.88,-47.52C118.87,-38.18 129.86,-26.75 137.24,-19.09"/>
<polygon fill="#63b8ff" stroke="#63b8ff" points="107.33,-45.12 102.92,-54.75 112.38,-49.97 107.33,-45.12"/>
</a>
</g>
</g>
</g>
</svg>
