<?xml version="1.0" encoding="UTF-8" standalone="no"?>
<!DOCTYPE svg PUBLIC "-//W3C//DTD SVG 1.1//EN"
 "http://www.w3.org/Graphics/SVG/1.1/DTD/svg11.dtd">
<!-- Generated by graphviz version 2.43.0 (0)
 -->
<!-- Title: main/exio.c Pages: 1 -->
<svg width="415pt" height="137pt"
 viewBox="0.00 0.00 415.00 137.00" xmlns="http://www.w3.org/2000/svg" xmlns:xlink="http://www.w3.org/1999/xlink">
<g id="graph0" class="graph" transform="scale(1 1) rotate(0) translate(4 133)">
<title>main/exio.c</title>
<!-- Node1 -->
<g id="Node000001" class="node">
<title>Node1</title>
<g id="a_Node000001"><a xlink:title=" ">
<polygon fill="#999999" stroke="#666666" points="248.5,-129 174.5,-129 174.5,-110 248.5,-110 248.5,-129"/>
<text text-anchor="middle" x="211.5" y="-117" font-family="Helvetica,sans-Serif" font-size="10.00">main/exio.c</text>
</a>
</g>
</g>
<!-- Node2 -->
<g id="Node000002" class="node">
<title>Node2</title>
<g id="a_Node000002"><a xlink:href="exio_8h.html" target="_top" xlink:title="TCA9554PWR I2C IO expander driver using the ESP&#45;IDF v5 New I2C Master API (bus handle + device handle...">
<polygon fill="white" stroke="#666666" points="91,-74 44,-74 44,-55 91,-55 91,-74"/>
<text text-anchor="middle" x="67.5" y="-62" font-family="Helvetica,sans-Serif" font-size="10.00">exio.h</text>
</a>
</g>
</g>
<!-- Node1&#45;&gt;Node2 -->
<g id="edge1_Node000001_Node000002" class="edge">
<title>Node1&#45;&gt;Node2</title>
<g id="a_edge1_Node000001_Node000002"><a xlink:title=" ">
<path fill="none" stroke="#63b8ff" d="M188.36,-109.98C164.68,-101.27 127.63,-87.63 100.79,-77.75"/>
<polygon fill="#63b8ff" stroke="#63b8ff" points="101.65,-74.34 91.06,-74.17 99.23,-80.91 101.65,-74.34"/>
</a>
</g>
</g>
<!-- Node5 -->
<g id="Node000005" class="node">
<title>Node5</title>
<g id="a_Node000005"><a xlink:href="board__config_8h.html" target="_top" xlink:title="Hardware pin assignments and compile&#45;time configuration constants for the Waveshare ESP32&#45;S3&#45;ETH&#45;8DI&#45;...">
<polygon fill="white" stroke="#666666" points="197.5,-74 109.5,-74 109.5,-55 197.5,-55 197.5,-74"/>
<text text-anchor="middle" x="153.5" y="-62" font-family="Helvetica,sans-Serif" font-size="10.00">board_config.h</text>
</a>
</g>
</g>
<!-- Node1&#45;&gt;Node5 -->
<g id="edge4_Node000001_Node000005" class="edge">
<title>Node1&#45;&gt;Node5</title>
<g id="a_edge4_Node000001_Node000005"><a xlink:title=" ">
<path fill="none" stroke="#63b8ff" d="M202.18,-109.98C193.69,-102.23 180.94,-90.58 170.62,-81.14"/>
<polygon fill="#63b8ff" stroke="#63b8ff" points="172.73,-78.33 162.99,-74.17 168.01,-83.5 172.73,-78.33"/>
</a>
</g>
</g>
<!-- Node6 -->
<g id="Node000006" class="node">
<title>Node6</title>
<g id="a_Node000006"><a xlink:title=" ">
<polygon fill="#e0e0e0" stroke="#999999" points="325.5,-74 215.5,-74 215.5,-55 325.5,-55 325.5,-74"/>
<text text-anchor="middle" x="270.5" y="-62" font-family="Helvetica,sans-Serif" font-size="10.00">driver/i2c_master.h</text>
</a>
</g>
</g>
<!-- Node1&#45;&gt;Node6 -->
<g id="edge5_Node000001_Node000006" class="edge">
<title>Node1&#45;&gt;Node6</title>
<g id="a_edge5_Node000001_Node000006"><a xlink:title=" ">
<path fill="none" stroke="#63b8ff" d="M220.98,-109.98C229.7,-102.15 242.84,-90.34 253.4,-80.86"/>
<polygon fill="#63b8ff" stroke="#63b8ff" points="255.75,-83.46 260.85,-74.17 251.07,-78.25 255.75,-83.46"/>
</a>
</g>
</g>
<!-- Node7 -->
<g id="Node000007" class="node">
<title>Node7</title>
<g id="a_Node000007"><a xlink:title=" ">
<polygon fill="#e0e0e0" stroke="#999999" points="407,-74 344,-74 344,-55 407,-55 407,-74"/>
<text text-anchor="middle" x="375.5" y="-62" font-family="Helvetica,sans-Serif" font-size="10.00">esp_log.h</text>
</a>
</g>
</g>
<!-- Node1&#45;&gt;Node7 -->
<g id="edge6_Node000001_Node000007" class="edge">
<title>Node1&#45;&gt;Node7</title>
<g id="a_edge6_Node000001_Node000007"><a xlink:title=" ">
<path fill="none" stroke="#63b8ff" d="M237.85,-109.98C265.26,-101.13 308.39,-87.19 339.06,-77.28"/>
<polygon fill="#63b8ff" stroke="#63b8ff" points="340.5,-80.49 348.94,-74.08 338.35,-73.83 340.5,-80.49"/>
</a>
</g>
</g>
<!-- Node3 -->
<g id="Node000003" class="node">
<title>Node3</title>
<g id="a_Node000003"><a xlink:title=" ">
<polygon fill="#e0e0e0" stroke="#999999" points="61,-19 0,-19 0,0 61,0 61,-19"/>
<text text-anchor="middle" x="30.5" y="-7" font-family="Helvetica,sans-Serif" font-size="10.00">esp_err.h</text>
</a>
</g>
</g>
<!-- Node2&#45;&gt;Node3 -->
<g id="edge2_Node000002_Node000003" class="edge">
<title>Node2&#45;&gt;Node3</title>
<g id="a_edge2_Node000002_Node000003"><a xlink:title=" ">
<path fill="none" stroke="#63b8ff" d="M61.39,-54.75C56.22,-47.34 48.65,-36.5 42.31,-27.41"/>
<polygon fill="#63b8ff" stroke="#63b8ff" points="45.09,-25.29 36.5,-19.09 39.35,-29.29 45.09,-25.29"/>
</a>
</g>
</g>
<!-- Node4 -->
<g id="Node000004" class="node">
<title>Node4</title>
<g id="a_Node000004"><a xlink:title=" ">
<polygon fill="#e0e0e0" stroke="#999999" points="132,-19 79,-19 79,0 132,0 132,-19"/>
<text text-anchor="middle" x="105.5" y="-7" font-family="Helvetica,sans-Serif" font-size="10.00">stdint.h</text>
</a>
</g>
</g>
<!-- Node2&#45;&gt;Node4 -->
<g id="edge3_Node000002_Node000004" class="edge">
<title>Node2&#45;&gt;Node4</title>
<g id="a_edge3_Node000002_Node000004"><a xlink:title=" ">
<path fill="none" stroke="#63b8ff" d="M73.77,-54.75C79.09,-47.34 86.86,-36.5 93.38,-27.41"/>
<polygon fill="#63b8ff" stroke="#63b8ff" points="96.36,-29.26 99.34,-19.09 90.67,-25.18 96.36,-29.26"/>
</a>
</g>
</g>
</g>
</svg>
