<?xml version="1.0" encoding="UTF-8" standalone="no"?>
<!DOCTYPE svg PUBLIC "-//W3C//DTD SVG 1.1//EN"
 "http://www.w3.org/Graphics/SVG/1.1/DTD/svg11.dtd">
<!-- Generated by graphviz version 2.43.0 (0)
 -->
<!-- Title: pwm_set_us Pages: 1 -->
<svg width="461pt" height="27pt"
 viewBox="0.00 0.00 461.00 27.00" xmlns="http://www.w3.org/2000/svg" xmlns:xlink="http://www.w3.org/1999/xlink">
<g id="graph0" class="graph" transform="scale(1 1) rotate(0) translate(4 23)">
<title>pwm_set_us</title>
<!-- Node1 -->
<g id="Node000001" class="node">
<title>Node1</title>
<g id="a_Node000001"><a xlink:title="지정 채널의 펄스 폭 설정">
<polygon fill="#999999" stroke="#666666" points="453,-19 376,-19 376,0 453,0 453,-19"/>
<text text-anchor="middle" x="414.5" y="-7" font-family="Helvetica,sans-Serif" font-size="10.00">pwm_set_us</text>
</a>
</g>
</g>
<!-- Node2 -->
<g id="Node000002" class="node">
<title>Node2</title>
<g id="a_Node000002"><a xlink:href="tcp__server_8c.html#ac01c8b112ca10bc43c7727c26be82be0" target="_top" xlink:title="수신된 한 줄 명령을 파싱하고 해당 드라이버를 호출한 뒤 응답 문자열을 작성한다.">
<polygon fill="white" stroke="#666666" points="340,-19 236,-19 236,0 340,0 340,-19"/>
<text text-anchor="middle" x="288" y="-7" font-family="Helvetica,sans-Serif" font-size="10.00">handle_command</text>
</a>
</g>
</g>
<!-- Node1&#45;&gt;Node2 -->
<g id="edge1_Node000001_Node000002" class="edge">
<title>Node1&#45;&gt;Node2</title>
<g id="a_edge1_Node000001_Node000002"><a xlink:title=" ">
<path fill="none" stroke="#63b8ff" d="M365.58,-9.5C357.32,-9.5 348.7,-9.5 340.35,-9.5"/>
<polygon fill="#63b8ff" stroke="#63b8ff" points="365.81,-13 375.81,-9.5 365.81,-6 365.81,-13"/>
</a>
</g>
</g>
<!-- Node3 -->
<g id="Node000003" class="node">
<title>Node3</title>
<g id="a_Node000003"><a xlink:href="tcp__server_8c.html#a295b1a88057e038158f20bcfe1ed3dfe" target="_top" xlink:title="개별 TCP 클라이언트 처리 태스크. 한 클라이언트당 하나의 태스크가 생성된다.">
<polygon fill="white" stroke="#666666" points="200,-19 130,-19 130,0 200,0 200,-19"/>
<text text-anchor="middle" x="165" y="-7" font-family="Helvetica,sans-Serif" font-size="10.00">client_task</text>
</a>
</g>
</g>
<!-- Node2&#45;&gt;Node3 -->
<g id="edge2_Node000002_Node000003" class="edge">
<title>Node2&#45;&gt;Node3</title>
<g id="a_edge2_Node000002_Node000003"><a xlink:title=" ">
<path fill="none" stroke="#63b8ff" d="M225.5,-9.5C216.8,-9.5 208.13,-9.5 200.21,-9.5"/>
<polygon fill="#63b8ff" stroke="#63b8ff" points="225.69,-13 235.69,-9.5 225.69,-6 225.69,-13"/>
</a>
</g>
</g>
<!-- Node4 -->
<g id="Node000004" class="node">
<title>Node4</title>
<g id="a_Node000004"><a xlink:href="tcp__server_8c.html#a61c868bc85ed2ebbea39dba6aab3ae55" target="_top" xlink:title="TCP 서버 리슨 태스크. accept() 루프로 클라이언트 연결을 수락하고 연결마다 client_task를 생성한다.">
<polygon fill="#fff0f0" stroke="red" points="94,-19 0,-19 0,0 94,0 94,-19"/>
<text text-anchor="middle" x="47" y="-7" font-family="Helvetica,sans-Serif" font-size="10.00">tcp_server_task</text>
</a>
</g>
</g>
<!-- Node3&#45;&gt;Node4 -->
<g id="edge3_Node000003_Node000004" class="edge">
<title>Node3&#45;&gt;Node4</title>
<g id="a_edge3_Node000003_Node000004"><a xlink:title=" ">
<path fill="none" stroke="#63b8ff" d="M119.63,-9.5C111.37,-9.5 102.72,-9.5 94.4,-9.5"/>
<polygon fill="#63b8ff" stroke="#63b8ff" points="119.82,-13 129.82,-9.5 119.82,-6 119.82,-13"/>
</a>
</g>
</g>
</g>
</svg>
