<?xml version="1.0" encoding="UTF-8" standalone="no"?>
<!DOCTYPE svg PUBLIC "-//W3C//DTD SVG 1.1//EN"
 "http://www.w3.org/Graphics/SVG/1.1/DTD/svg11.dtd">
<!-- Generated by graphviz version 2.43.0 (0)
 -->
<!-- Title: main/main.c Pages: 1 -->
<svg width="667pt" height="137pt"
 viewBox="0.00 0.00 667.00 137.00" xmlns="http://www.w3.org/2000/svg" xmlns:xlink="http://www.w3.org/1999/xlink">
<g id="graph0" class="graph" transform="scale(1 1) rotate(0) translate(4 133)">
<title>main/main.c</title>
<!-- Node1 -->
<g id="Node000001" class="node">
<title>Node1</title>
<g id="a_Node000001"><a xlink:title="Application entry point — initialises all subsystems in order and hands control to the FreeRTOS sched...">
<polygon fill="#999999" stroke="#666666" points="376,-129 299,-129 299,-110 376,-110 376,-129"/>
<text text-anchor="middle" x="337.5" y="-117" font-family="Helvetica,sans-Serif" font-size="10.00">main/main.c</text>
</a>
</g>
</g>
<!-- Node2 -->
<g id="Node000002" class="node">
<title>Node2</title>
<g id="a_Node000002"><a xlink:title=" ">
<polygon fill="#e0e0e0" stroke="#999999" points="63,-74 0,-74 0,-55 63,-55 63,-74"/>
<text text-anchor="middle" x="31.5" y="-62" font-family="Helvetica,sans-Serif" font-size="10.00">esp_log.h</text>
</a>
</g>
</g>
<!-- Node1&#45;&gt;Node2 -->
<g id="edge1_Node000001_Node000002" class="edge">
<title>Node1&#45;&gt;Node2</title>
<g id="a_edge1_Node000001_Node000002"><a xlink:title=" ">
<path fill="none" stroke="#63b8ff" d="M298.64,-112.54C248.67,-104.76 158.97,-90.4 73.24,-74.27"/>
<polygon fill="#63b8ff" stroke="#63b8ff" points="73.83,-70.82 63.35,-72.4 72.53,-77.7 73.83,-70.82"/>
</a>
</g>
</g>
<!-- Node3 -->
<g id="Node000003" class="node">
<title>Node3</title>
<g id="a_Node000003"><a xlink:title=" ">
<polygon fill="#e0e0e0" stroke="#999999" points="152,-74 81,-74 81,-55 152,-55 152,-74"/>
<text text-anchor="middle" x="116.5" y="-62" font-family="Helvetica,sans-Serif" font-size="10.00">nvs_flash.h</text>
</a>
</g>
</g>
<!-- Node1&#45;&gt;Node3 -->
<g id="edge2_Node000001_Node000003" class="edge">
<title>Node1&#45;&gt;Node3</title>
<g id="a_edge2_Node000001_Node000003"><a xlink:title=" ">
<path fill="none" stroke="#63b8ff" d="M301.99,-109.98C264.01,-100.87 203.63,-86.4 162.14,-76.45"/>
<polygon fill="#63b8ff" stroke="#63b8ff" points="162.83,-73.01 152.29,-74.08 161.19,-79.82 162.83,-73.01"/>
</a>
</g>
</g>
<!-- Node4 -->
<g id="Node000004" class="node">
<title>Node4</title>
<g id="a_Node000004"><a xlink:title=" ">
<polygon fill="#e0e0e0" stroke="#999999" points="246.5,-74 170.5,-74 170.5,-55 246.5,-55 246.5,-74"/>
<text text-anchor="middle" x="208.5" y="-62" font-family="Helvetica,sans-Serif" font-size="10.00">esp_event.h</text>
</a>
</g>
</g>
<!-- Node1&#45;&gt;Node4 -->
<g id="edge3_Node000001_Node000004" class="edge">
<title>Node1&#45;&gt;Node4</title>
<g id="a_edge3_Node000001_Node000004"><a xlink:title=" ">
<path fill="none" stroke="#63b8ff" d="M316.77,-109.98C295.74,-101.34 262.95,-87.87 238.96,-78.02"/>
<polygon fill="#63b8ff" stroke="#63b8ff" points="240.18,-74.73 229.6,-74.17 237.52,-81.21 240.18,-74.73"/>
</a>
</g>
</g>
<!-- Node5 -->
<g id="Node000005" class="node">
<title>Node5</title>
<g id="a_Node000005"><a xlink:title=" ">
<polygon fill="#e0e0e0" stroke="#999999" points="334.5,-74 264.5,-74 264.5,-55 334.5,-55 334.5,-74"/>
<text text-anchor="middle" x="299.5" y="-62" font-family="Helvetica,sans-Serif" font-size="10.00">esp_netif.h</text>
</a>
</g>
</g>
<!-- Node1&#45;&gt;Node5 -->
<g id="edge4_Node000001_Node000005" class="edge">
<title>Node1&#45;&gt;Node5</title>
<g id="a_edge4_Node000001_Node000005"><a xlink:title=" ">
<path fill="none" stroke="#63b8ff" d="M331.23,-109.75C325.91,-102.34 318.14,-91.5 311.62,-82.41"/>
<polygon fill="#63b8ff" stroke="#63b8ff" points="314.33,-80.18 305.66,-74.09 308.64,-84.26 314.33,-80.18"/>
</a>
</g>
</g>
<!-- Node6 -->
<g id="Node000006" class="node">
<title>Node6</title>
<g id="a_Node000006"><a xlink:href="exio_8h.html" target="_top" xlink:title="TCA9554PWR I2C IO expander driver using the ESP&#45;IDF v5 New I2C Master API (bus handle + device handle...">
<polygon fill="white" stroke="#666666" points="400,-74 353,-74 353,-55 400,-55 400,-74"/>
<text text-anchor="middle" x="376.5" y="-62" font-family="Helvetica,sans-Serif" font-size="10.00">exio.h</text>
</a>
</g>
</g>
<!-- Node1&#45;&gt;Node6 -->
<g id="edge5_Node000001_Node000006" class="edge">
<title>Node1&#45;&gt;Node6</title>
<g id="a_edge5_Node000001_Node000006"><a xlink:title=" ">
<path fill="none" stroke="#63b8ff" d="M343.94,-109.75C349.39,-102.34 357.36,-91.5 364.06,-82.41"/>
<polygon fill="#63b8ff" stroke="#63b8ff" points="367.07,-84.22 370.18,-74.09 361.43,-80.07 367.07,-84.22"/>
</a>
</g>
</g>
<!-- Node9 -->
<g id="Node000009" class="node">
<title>Node9</title>
<g id="a_Node000009"><a xlink:href="relay__ctrl_8h.html" target="_top" xlink:title="High&#45;level relay control API built on top of exio.h. Maps relay IDs (RELAY_1..RELAY_8) to TCA9554 out...">
<polygon fill="white" stroke="#666666" points="659,-74 588,-74 588,-55 659,-55 659,-74"/>
<text text-anchor="middle" x="623.5" y="-62" font-family="Helvetica,sans-Serif" font-size="10.00">relay_ctrl.h</text>
</a>
</g>
</g>
<!-- Node1&#45;&gt;Node9 -->
<g id="edge8_Node000001_Node000009" class="edge">
<title>Node1&#45;&gt;Node9</title>
<g id="a_edge8_Node000001_Node000009"><a xlink:title=" ">
<path fill="none" stroke="#63b8ff" d="M376.33,-111.38C422.01,-102.99 500.42,-88.56 577.73,-74.14"/>
<polygon fill="#63b8ff" stroke="#63b8ff" points="578.45,-77.56 587.64,-72.29 577.17,-70.68 578.45,-77.56"/>
</a>
</g>
</g>
<!-- Node11 -->
<g id="Node000011" class="node">
<title>Node11</title>
<g id="a_Node000011"><a xlink:href="pwm__ctrl_8h.html" target="_top" xlink:title="LEDC&#45;based RC PWM driver for two motor channels. Generates 50 Hz signals in the 1000–2000 µs pulse&#45;wi...">
<polygon fill="white" stroke="#666666" points="489,-74 418,-74 418,-55 489,-55 489,-74"/>
<text text-anchor="middle" x="453.5" y="-62" font-family="Helvetica,sans-Serif" font-size="10.00">pwm_ctrl.h</text>
</a>
</g>
</g>
<!-- Node1&#45;&gt;Node11 -->
<g id="edge12_Node000001_Node000011" class="edge">
<title>Node1&#45;&gt;Node11</title>
<g id="a_edge12_Node000001_Node000011"><a xlink:title=" ">
<path fill="none" stroke="#63b8ff" d="M356.14,-109.98C374.8,-101.46 403.75,-88.23 425.24,-78.41"/>
<polygon fill="#63b8ff" stroke="#63b8ff" points="426.88,-81.51 434.52,-74.17 423.97,-75.14 426.88,-81.51"/>
</a>
</g>
</g>
<!-- Node12 -->
<g id="Node000012" class="node">
<title>Node12</title>
<g id="a_Node000012"><a xlink:href="eth__init_8h.html" target="_top" xlink:title="W5500 SPI Ethernet initialisation — sets up the SPI bus, installs the W5500 driver,...">
<polygon fill="white" stroke="#666666" points="569.5,-74 507.5,-74 507.5,-55 569.5,-55 569.5,-74"/>
<text text-anchor="middle" x="538.5" y="-62" font-family="Helvetica,sans-Serif" font-size="10.00">eth_init.h</text>
</a>
</g>
</g>
<!-- Node1&#45;&gt;Node12 -->
<g id="edge15_Node000001_Node000012" class="edge">
<title>Node1&#45;&gt;Node12</title>
<g id="a_edge15_Node000001_Node000012"><a xlink:title=" ">
<path fill="none" stroke="#63b8ff" d="M369.79,-109.98C404.53,-100.82 459.85,-86.24 497.61,-76.28"/>
<polygon fill="#63b8ff" stroke="#63b8ff" points="498.5,-79.67 507.28,-73.73 496.72,-72.9 498.5,-79.67"/>
</a>
</g>
</g>
<!-- Node7 -->
<g id="Node000007" class="node">
<title>Node7</title>
<g id="a_Node000007"><a xlink:title=" ">
<polygon fill="#e0e0e0" stroke="#999999" points="564,-19 503,-19 503,0 564,0 564,-19"/>
<text text-anchor="middle" x="533.5" y="-7" font-family="Helvetica,sans-Serif" font-size="10.00">esp_err.h</text>
</a>
</g>
</g>
<!-- Node6&#45;&gt;Node7 -->
<g id="edge6_Node000006_Node000007" class="edge">
<title>Node6&#45;&gt;Node7</title>
<g id="a_edge6_Node000006_Node000007"><a xlink:title=" ">
<path fill="none" stroke="#63b8ff" d="M400,-55.57C426.14,-46.74 468.6,-32.41 498.61,-22.28"/>
<polygon fill="#63b8ff" stroke="#63b8ff" points="499.92,-25.53 508.27,-19.02 497.68,-18.9 499.92,-25.53"/>
</a>
</g>
</g>
<!-- Node8 -->
<g id="Node000008" class="node">
<title>Node8</title>
<g id="a_Node000008"><a xlink:title=" ">
<polygon fill="#e0e0e0" stroke="#999999" points="480,-19 427,-19 427,0 480,0 480,-19"/>
<text text-anchor="middle" x="453.5" y="-7" font-family="Helvetica,sans-Serif" font-size="10.00">stdint.h</text>
</a>
</g>
</g>
<!-- Node6&#45;&gt;Node8 -->
<g id="edge7_Node000006_Node000008" class="edge">
<title>Node6&#45;&gt;Node8</title>
<g id="a_edge7_Node000006_Node000008"><a xlink:title=" ">
<path fill="none" stroke="#63b8ff" d="M388.87,-54.98C400.59,-46.92 418.42,-34.65 432.39,-25.03"/>
<polygon fill="#63b8ff" stroke="#63b8ff" points="434.65,-27.72 440.9,-19.17 430.68,-21.96 434.65,-27.72"/>
</a>
</g>
</g>
<!-- Node9&#45;&gt;Node7 -->
<g id="edge9_Node000009_Node000007" class="edge">
<title>Node9&#45;&gt;Node7</title>
<g id="a_edge9_Node000009_Node000007"><a xlink:title=" ">
<path fill="none" stroke="#63b8ff" d="M609.04,-54.98C595.08,-46.77 573.71,-34.18 557.25,-24.49"/>
<polygon fill="#63b8ff" stroke="#63b8ff" points="558.62,-21.23 548.22,-19.17 555.06,-27.26 558.62,-21.23"/>
</a>
</g>
</g>
<!-- Node9&#45;&gt;Node8 -->
<g id="edge11_Node000009_Node000008" class="edge">
<title>Node9&#45;&gt;Node8</title>
<g id="a_edge11_Node000009_Node000008"><a xlink:title=" ">
<path fill="none" stroke="#63b8ff" d="M596.19,-54.98C567.39,-46.01 521.87,-31.82 490.01,-21.88"/>
<polygon fill="#63b8ff" stroke="#63b8ff" points="490.77,-18.45 480.19,-18.82 488.69,-25.14 490.77,-18.45"/>
</a>
</g>
</g>
<!-- Node10 -->
<g id="Node000010" class="node">
<title>Node10</title>
<g id="a_Node000010"><a xlink:title=" ">
<polygon fill="#e0e0e0" stroke="#999999" points="654.5,-19 592.5,-19 592.5,0 654.5,0 654.5,-19"/>
<text text-anchor="middle" x="623.5" y="-7" font-family="Helvetica,sans-Serif" font-size="10.00">stdbool.h</text>
</a>
</g>
</g>
<!-- Node9&#45;&gt;Node10 -->
<g id="edge10_Node000009_Node000010" class="edge">
<title>Node9&#45;&gt;Node10</title>
<g id="a_edge10_Node000009_Node000010"><a xlink:title=" ">
<path fill="none" stroke="#63b8ff" d="M623.5,-54.75C623.5,-47.8 623.5,-37.85 623.5,-29.13"/>
<polygon fill="#63b8ff" stroke="#63b8ff" points="627,-29.09 623.5,-19.09 620,-29.09 627,-29.09"/>
</a>
</g>
</g>
<!-- Node11&#45;&gt;Node7 -->
<g id="edge13_Node000011_Node000007" class="edge">
<title>Node11&#45;&gt;Node7</title>
<g id="a_edge13_Node000011_Node000007"><a xlink:title=" ">
<path fill="none" stroke="#63b8ff" d="M466.35,-54.98C478.64,-46.84 497.41,-34.41 511.98,-24.76"/>
<polygon fill="#63b8ff" stroke="#63b8ff" points="514.01,-27.61 520.41,-19.17 510.14,-21.78 514.01,-27.61"/>
</a>
</g>
</g>
<!-- Node11&#45;&gt;Node8 -->
<g id="edge14_Node000011_Node000008" class="edge">
<title>Node11&#45;&gt;Node8</title>
<g id="a_edge14_Node000011_Node000008"><a xlink:title=" ">
<path fill="none" stroke="#63b8ff" d="M453.5,-54.75C453.5,-47.8 453.5,-37.85 453.5,-29.13"/>
<polygon fill="#63b8ff" stroke="#63b8ff" points="457,-29.09 453.5,-19.09 450,-29.09 457,-29.09"/>
</a>
</g>
</g>
<!-- Node12&#45;&gt;Node7 -->
<g id="edge16_Node000012_Node000007" class="edge">
<title>Node12&#45;&gt;Node7</title>
<g id="a_edge16_Node000012_Node000007"><a xlink:title=" ">
<path fill="none" stroke="#63b8ff" d="M537.67,-54.75C537.02,-47.8 536.08,-37.85 535.26,-29.13"/>
<polygon fill="#63b8ff" stroke="#63b8ff" points="538.73,-28.72 534.31,-19.09 531.77,-29.37 538.73,-28.72"/>
</a>
</g>
</g>
</g>
</svg>
