<?xml version="1.0" encoding="UTF-8" standalone="no"?>
<!DOCTYPE svg PUBLIC "-//W3C//DTD SVG 1.1//EN"
 "http://www.w3.org/Graphics/SVG/1.1/DTD/svg11.dtd">
<!-- Generated by graphviz version 2.43.0 (0)
 -->
<!-- Title: tcp_server_task Pages: 1 -->
<svg width="459pt" height="27pt"
 viewBox="0.00 0.00 459.00 27.00" xmlns="http://www.w3.org/2000/svg" xmlns:xlink="http://www.w3.org/1999/xlink">
<g id="graph0" class="graph" transform="scale(1 1) rotate(0) translate(4 23)">
<title>tcp_server_task</title>
<!-- Node1 -->
<g id="Node000001" class="node">
<title>Node1</title>
<g id="a_Node000001"><a xlink:title=" ">
<polygon fill="#999999" stroke="#666666" points="451,-19 357,-19 357,0 451,0 451,-19"/>
<text text-anchor="middle" x="404" y="-7" font-family="Helvetica,sans-Serif" font-size="10.00">tcp_server_task</text>
</a>
</g>
</g>
<!-- Node2 -->
<g id="Node000002" class="node">
<title>Node2</title>
<g id="a_Node000002"><a xlink:href="tcp__server_8c.html#a3c752d8c97b989346982ec521d6410eb" target="_top" xlink:title="TCP 서버 시작 (FreeRTOS 태스크 생성) IP 획득 이벤트 후 eth_init.c에서 자동 호출됨">
<polygon fill="white" stroke="#666666" points="321,-19 226,-19 226,0 321,0 321,-19"/>
<text text-anchor="middle" x="273.5" y="-7" font-family="Helvetica,sans-Serif" font-size="10.00">tcp_server_start</text>
</a>
</g>
</g>
<!-- Node1&#45;&gt;Node2 -->
<g id="edge1_Node000001_Node000002" class="edge">
<title>Node1&#45;&gt;Node2</title>
<g id="a_edge1_Node000001_Node000002"><a xlink:title=" ">
<path fill="none" stroke="#63b8ff" d="M346.96,-9.5C338.32,-9.5 329.48,-9.5 321.07,-9.5"/>
<polygon fill="#63b8ff" stroke="#63b8ff" points="346.97,-13 356.97,-9.5 346.97,-6 346.97,-13"/>
</a>
</g>
</g>
<!-- Node3 -->
<g id="Node000003" class="node">
<title>Node3</title>
<g id="a_Node000003"><a xlink:href="eth__init_8c.html#abfb9112243ef468009b3cf807c91f49f" target="_top" xlink:title=" ">
<polygon fill="white" stroke="#666666" points="190,-19 89,-19 89,0 190,0 190,-19"/>
<text text-anchor="middle" x="139.5" y="-7" font-family="Helvetica,sans-Serif" font-size="10.00">ip_event_handler</text>
</a>
</g>
</g>
<!-- Node2&#45;&gt;Node3 -->
<g id="edge2_Node000002_Node000003" class="edge">
<title>Node2&#45;&gt;Node3</title>
<g id="a_edge2_Node000002_Node000003"><a xlink:title=" ">
<path fill="none" stroke="#63b8ff" d="M215.74,-9.5C207.24,-9.5 198.54,-9.5 190.2,-9.5"/>
<polygon fill="#63b8ff" stroke="#63b8ff" points="215.96,-13 225.96,-9.5 215.96,-6 215.96,-13"/>
</a>
</g>
</g>
<!-- Node4 -->
<g id="Node000004" class="node">
<title>Node4</title>
<g id="a_Node000004"><a xlink:href="eth__init_8c.html#a8704f04057e1ef0c316f73f27cf1fed2" target="_top" xlink:title="W5500 SPI Ethernet 초기화">
<polygon fill="#fff0f0" stroke="red" points="53,-19 0,-19 0,0 53,0 53,-19"/>
<text text-anchor="middle" x="26.5" y="-7" font-family="Helvetica,sans-Serif" font-size="10.00">eth_init</text>
</a>
</g>
</g>
<!-- Node3&#45;&gt;Node4 -->
<g id="edge3_Node000003_Node000004" class="edge">
<title>Node3&#45;&gt;Node4</title>
<g id="a_edge3_Node000003_Node000004"><a xlink:title=" ">
<path fill="none" stroke="#63b8ff" d="M78.67,-9.5C69.68,-9.5 60.84,-9.5 53.1,-9.5"/>
<polygon fill="#63b8ff" stroke="#63b8ff" points="78.84,-13 88.84,-9.5 78.84,-6 78.84,-13"/>
</a>
</g>
</g>
</g>
</svg>
